<mxfile host="65bd71144e">
    <diagram id="hsc3jebQxRIQMESUTUUY" name="ページ1">
        <mxGraphModel dx="2343" dy="1980" grid="1" gridSize="10" guides="1" tooltips="1" connect="1" arrows="1" fold="1" page="1" pageScale="1" pageWidth="850" pageHeight="1100" math="0" shadow="0">
            <root>
                <mxCell id="0"/>
                <mxCell id="1" parent="0"/>
                <mxCell id="10" value="" style="group" parent="1" vertex="1" connectable="0">
                    <mxGeometry x="200" y="110" width="890" height="650" as="geometry"/>
                </mxCell>
                <mxCell id="6" value="登録済み" style="rounded=0;whiteSpace=wrap;html=1;" parent="10" vertex="1">
                    <mxGeometry y="30" width="200" height="40" as="geometry"/>
                </mxCell>
                <mxCell id="8" value="" style="rounded=0;whiteSpace=wrap;html=1;" parent="10" vertex="1">
                    <mxGeometry y="70" width="200" height="420" as="geometry"/>
                </mxCell>
                <mxCell id="9" value="" style="rounded=0;whiteSpace=wrap;html=1;" parent="10" vertex="1">
                    <mxGeometry x="200" y="70" width="320" height="420" as="geometry"/>
                </mxCell>
                <mxCell id="33" style="edgeStyle=none;html=1;exitX=0.5;exitY=1;exitDx=0;exitDy=0;entryX=0.5;entryY=0;entryDx=0;entryDy=0;" parent="10" target="12" edge="1">
                    <mxGeometry relative="1" as="geometry">
                        <mxPoint x="100" y="120" as="sourcePoint"/>
                    </mxGeometry>
                </mxCell>
                <mxCell id="34" style="edgeStyle=none;html=1;exitX=1;exitY=0.5;exitDx=0;exitDy=0;entryX=0;entryY=0.5;entryDx=0;entryDy=0;" parent="10" source="12" target="77" edge="1">
                    <mxGeometry relative="1" as="geometry"/>
                </mxCell>
                <mxCell id="12" value="ゲームの実行をする" style="rounded=0;whiteSpace=wrap;html=1;" parent="10" vertex="1">
                    <mxGeometry x="60" y="140" width="80" height="30" as="geometry"/>
                </mxCell>
                <mxCell id="35" style="edgeStyle=none;html=1;exitX=0.5;exitY=1;exitDx=0;exitDy=0;entryX=0.5;entryY=0;entryDx=0;entryDy=0;" parent="10" source="23" target="24" edge="1">
                    <mxGeometry relative="1" as="geometry">
                        <Array as="points">
                            <mxPoint x="300" y="250"/>
                            <mxPoint x="100" y="250"/>
                        </Array>
                    </mxGeometry>
                </mxCell>
                <mxCell id="23" value="ユーザ情報の入力フォームを出力する" style="rounded=0;whiteSpace=wrap;html=1;" parent="10" vertex="1">
                    <mxGeometry x="245" y="210" width="110" height="30" as="geometry"/>
                </mxCell>
                <mxCell id="37" style="edgeStyle=none;html=1;exitX=1;exitY=0.5;exitDx=0;exitDy=0;entryX=0;entryY=0.5;entryDx=0;entryDy=0;" parent="10" source="24" target="25" edge="1">
                    <mxGeometry relative="1" as="geometry"/>
                </mxCell>
                <mxCell id="24" value="ユーザネームを入力する" style="rounded=0;whiteSpace=wrap;html=1;" parent="10" vertex="1">
                    <mxGeometry x="40" y="280" width="120" height="30" as="geometry"/>
                </mxCell>
                <mxCell id="39" style="edgeStyle=none;html=1;exitX=1;exitY=0.5;exitDx=0;exitDy=0;entryX=0;entryY=0.5;entryDx=0;entryDy=0;" parent="10" source="25" target="38" edge="1">
                    <mxGeometry relative="1" as="geometry"/>
                </mxCell>
                <mxCell id="25" value="ユーザネームとパスワードの内容を確認する" style="rounded=0;whiteSpace=wrap;html=1;" parent="10" vertex="1">
                    <mxGeometry x="225" y="280" width="130" height="30" as="geometry"/>
                </mxCell>
                <mxCell id="48" style="edgeStyle=none;html=1;exitX=0.5;exitY=1;exitDx=0;exitDy=0;entryX=0.5;entryY=0;entryDx=0;entryDy=0;" parent="10" source="30" target="204" edge="1">
                    <mxGeometry relative="1" as="geometry"/>
                </mxCell>
                <mxCell id="30" value="ログイン完了" style="rounded=0;whiteSpace=wrap;html=1;" parent="10" vertex="1">
                    <mxGeometry x="375" y="350" width="80" height="30" as="geometry"/>
                </mxCell>
                <mxCell id="31" value="" style="group" parent="10" vertex="1" connectable="0">
                    <mxGeometry width="520" height="70" as="geometry"/>
                </mxCell>
                <mxCell id="5" value="POOL" style="rounded=0;whiteSpace=wrap;html=1;" parent="31" vertex="1">
                    <mxGeometry width="520" height="30" as="geometry"/>
                </mxCell>
                <mxCell id="7" value="システム" style="rounded=0;whiteSpace=wrap;html=1;" parent="31" vertex="1">
                    <mxGeometry x="200" y="30" width="320" height="40" as="geometry"/>
                </mxCell>
                <mxCell id="40" style="edgeStyle=none;html=1;exitX=0.5;exitY=0;exitDx=0;exitDy=0;entryX=1;entryY=0.5;entryDx=0;entryDy=0;" parent="10" source="38" target="23" edge="1">
                    <mxGeometry relative="1" as="geometry">
                        <Array as="points">
                            <mxPoint x="415" y="225"/>
                        </Array>
                    </mxGeometry>
                </mxCell>
                <mxCell id="44" style="edgeStyle=none;html=1;exitX=0.5;exitY=1;exitDx=0;exitDy=0;entryX=0.5;entryY=0;entryDx=0;entryDy=0;" parent="10" source="38" target="30" edge="1">
                    <mxGeometry relative="1" as="geometry"/>
                </mxCell>
                <mxCell id="38" value="" style="rhombus;whiteSpace=wrap;html=1;" parent="10" vertex="1">
                    <mxGeometry x="400" y="280" width="30" height="30" as="geometry"/>
                </mxCell>
                <mxCell id="42" value="該当情報なし" style="text;html=1;strokeColor=none;fillColor=none;align=center;verticalAlign=middle;whiteSpace=wrap;rounded=0;" parent="10" vertex="1">
                    <mxGeometry x="430" y="240" width="60" height="30" as="geometry"/>
                </mxCell>
                <mxCell id="45" value="該当情報あり" style="text;html=1;strokeColor=none;fillColor=none;align=center;verticalAlign=middle;whiteSpace=wrap;rounded=0;" parent="10" vertex="1">
                    <mxGeometry x="460" y="350" width="60" height="30" as="geometry"/>
                </mxCell>
                <mxCell id="47" value="" style="ellipse;html=1;shape=endState;fillColor=strokeColor;" parent="10" vertex="1">
                    <mxGeometry x="400" y="460" width="30" height="30" as="geometry"/>
                </mxCell>
                <mxCell id="80" style="edgeStyle=none;html=1;exitX=0.5;exitY=1;exitDx=0;exitDy=0;entryX=1;entryY=0.25;entryDx=0;entryDy=0;" edge="1" parent="10" source="77" target="78">
                    <mxGeometry relative="1" as="geometry"/>
                </mxCell>
                <mxCell id="77" value="ユーザが「登録済み」か「未登録」かを選択するボタンを出力する" style="rounded=0;whiteSpace=wrap;html=1;" vertex="1" parent="10">
                    <mxGeometry x="230" y="140" width="200" height="30" as="geometry"/>
                </mxCell>
                <mxCell id="81" style="edgeStyle=none;html=1;exitX=1;exitY=0.75;exitDx=0;exitDy=0;entryX=0;entryY=0.5;entryDx=0;entryDy=0;" edge="1" parent="10" source="78" target="23">
                    <mxGeometry relative="1" as="geometry"/>
                </mxCell>
                <mxCell id="78" value="「登録済み」を選択" style="rounded=0;whiteSpace=wrap;html=1;" vertex="1" parent="10">
                    <mxGeometry x="40" y="190" width="120" height="30" as="geometry"/>
                </mxCell>
                <mxCell id="198" value="" style="ellipse;fillColor=strokeColor;" vertex="1" parent="10">
                    <mxGeometry x="85" y="90" width="30" height="30" as="geometry"/>
                </mxCell>
                <mxCell id="399" style="edgeStyle=none;html=1;exitX=0.5;exitY=1;exitDx=0;exitDy=0;entryX=0.5;entryY=0;entryDx=0;entryDy=0;" edge="1" parent="10" source="204" target="47">
                    <mxGeometry relative="1" as="geometry"/>
                </mxCell>
                <mxCell id="204" value="ユーザに10000円を付与する" style="rounded=0;whiteSpace=wrap;html=1;" vertex="1" parent="10">
                    <mxGeometry x="355" y="400" width="120" height="28" as="geometry"/>
                </mxCell>
                <mxCell id="828" value="掛け金を入力する" style="text;html=1;strokeColor=none;fillColor=none;align=center;verticalAlign=middle;whiteSpace=wrap;rounded=0;" vertex="1" parent="10">
                    <mxGeometry x="210" y="500" width="100" height="30" as="geometry"/>
                </mxCell>
                <mxCell id="85" value="" style="group" vertex="1" connectable="0" parent="1">
                    <mxGeometry x="790" y="100" width="850" height="670" as="geometry"/>
                </mxCell>
                <mxCell id="86" value="未登録" style="rounded=0;whiteSpace=wrap;html=1;" vertex="1" parent="85">
                    <mxGeometry y="30.923076923076916" width="191.0112359550562" height="41.23076923076922" as="geometry"/>
                </mxCell>
                <mxCell id="87" value="" style="rounded=0;whiteSpace=wrap;html=1;" vertex="1" parent="85">
                    <mxGeometry y="72.15384615384615" width="191.0112359550562" height="432.92307692307685" as="geometry"/>
                </mxCell>
                <mxCell id="88" value="" style="rounded=0;whiteSpace=wrap;html=1;" vertex="1" parent="85">
                    <mxGeometry x="191.0112359550562" y="72.15384615384615" width="305.61797752808997" height="432.92307692307685" as="geometry"/>
                </mxCell>
                <mxCell id="89" style="edgeStyle=none;html=1;exitX=0.5;exitY=1;exitDx=0;exitDy=0;entryX=0.5;entryY=0;entryDx=0;entryDy=0;" edge="1" parent="85" target="92">
                    <mxGeometry relative="1" as="geometry">
                        <mxPoint x="95.50926570336628" y="104.35108110422584" as="sourcePoint"/>
                    </mxGeometry>
                </mxCell>
                <mxCell id="91" style="edgeStyle=none;html=1;exitX=1;exitY=0.5;exitDx=0;exitDy=0;entryX=0;entryY=0.5;entryDx=0;entryDy=0;" edge="1" parent="85" source="92" target="111">
                    <mxGeometry relative="1" as="geometry"/>
                </mxCell>
                <mxCell id="92" value="ゲームの実行をする" style="rounded=0;whiteSpace=wrap;html=1;" vertex="1" parent="85">
                    <mxGeometry x="57.303370786516844" y="144.3076923076923" width="76.40449438202249" height="30.923076923076916" as="geometry"/>
                </mxCell>
                <mxCell id="93" style="edgeStyle=none;html=1;exitX=0.5;exitY=1;exitDx=0;exitDy=0;entryX=0.5;entryY=0;entryDx=0;entryDy=0;" edge="1" parent="85" source="94" target="96">
                    <mxGeometry relative="1" as="geometry">
                        <Array as="points">
                            <mxPoint x="286.5168539325843" y="257.6923076923077"/>
                            <mxPoint x="95.5056179775281" y="257.6923076923077"/>
                        </Array>
                    </mxGeometry>
                </mxCell>
                <mxCell id="94" value="ユーザ情報の入力フォームを出力する" style="rounded=0;whiteSpace=wrap;html=1;" vertex="1" parent="85">
                    <mxGeometry x="233.98876404494388" y="216.46153846153842" width="105.0561797752809" height="30.923076923076916" as="geometry"/>
                </mxCell>
                <mxCell id="95" style="edgeStyle=none;html=1;exitX=1;exitY=0.5;exitDx=0;exitDy=0;entryX=0;entryY=0.5;entryDx=0;entryDy=0;" edge="1" parent="85" source="96" target="98">
                    <mxGeometry relative="1" as="geometry"/>
                </mxCell>
                <mxCell id="96" value="ユーザネームとパスワードを入力する" style="rounded=0;whiteSpace=wrap;html=1;" vertex="1" parent="85">
                    <mxGeometry x="38.202247191011246" y="288.6153846153846" width="114.60674157303369" height="30.923076923076916" as="geometry"/>
                </mxCell>
                <mxCell id="97" style="edgeStyle=none;html=1;exitX=1;exitY=0.5;exitDx=0;exitDy=0;entryX=0;entryY=0.5;entryDx=0;entryDy=0;" edge="1" parent="85" source="98" target="106">
                    <mxGeometry relative="1" as="geometry"/>
                </mxCell>
                <mxCell id="98" value="ユーザネームとパスワードの内容を確認する" style="rounded=0;whiteSpace=wrap;html=1;" vertex="1" parent="85">
                    <mxGeometry x="219.66" y="288.62" width="124.72" height="30.92" as="geometry"/>
                </mxCell>
                <mxCell id="99" style="edgeStyle=none;html=1;exitX=0.5;exitY=1;exitDx=0;exitDy=0;entryX=0.5;entryY=0;entryDx=0;entryDy=0;" edge="1" parent="85" source="100" target="400">
                    <mxGeometry relative="1" as="geometry"/>
                </mxCell>
                <mxCell id="100" value="登録完了" style="rounded=0;whiteSpace=wrap;html=1;" vertex="1" parent="85">
                    <mxGeometry x="358.1460674157304" y="360.7692307692308" width="76.40449438202249" height="30.923076923076916" as="geometry"/>
                </mxCell>
                <mxCell id="101" value="" style="group" vertex="1" connectable="0" parent="85">
                    <mxGeometry width="496.6292134831462" height="72.15384615384615" as="geometry"/>
                </mxCell>
                <mxCell id="102" value="POOL" style="rounded=0;whiteSpace=wrap;html=1;" vertex="1" parent="101">
                    <mxGeometry width="496.6292134831462" height="30.923076923076916" as="geometry"/>
                </mxCell>
                <mxCell id="103" value="システム" style="rounded=0;whiteSpace=wrap;html=1;" vertex="1" parent="101">
                    <mxGeometry x="191.01123595505624" y="30.923076923076916" width="305.61797752809" height="41.23076923076922" as="geometry"/>
                </mxCell>
                <mxCell id="104" style="edgeStyle=none;html=1;exitX=0.5;exitY=0;exitDx=0;exitDy=0;entryX=1;entryY=0.5;entryDx=0;entryDy=0;" edge="1" parent="85" source="106" target="94">
                    <mxGeometry relative="1" as="geometry">
                        <Array as="points">
                            <mxPoint x="396.3483146067416" y="231.92307692307688"/>
                        </Array>
                    </mxGeometry>
                </mxCell>
                <mxCell id="105" style="edgeStyle=none;html=1;exitX=0.5;exitY=1;exitDx=0;exitDy=0;entryX=0.5;entryY=0;entryDx=0;entryDy=0;" edge="1" parent="85" source="106" target="100">
                    <mxGeometry relative="1" as="geometry"/>
                </mxCell>
                <mxCell id="106" value="" style="rhombus;whiteSpace=wrap;html=1;" vertex="1" parent="85">
                    <mxGeometry x="382.0224719101124" y="288.6153846153846" width="28.651685393258422" height="30.923076923076916" as="geometry"/>
                </mxCell>
                <mxCell id="107" value="該当情報なし" style="text;html=1;strokeColor=none;fillColor=none;align=center;verticalAlign=middle;whiteSpace=wrap;rounded=0;" vertex="1" parent="85">
                    <mxGeometry x="439.3241573033708" y="360.76461538461535" width="57.303370786516844" height="30.923076923076916" as="geometry"/>
                </mxCell>
                <mxCell id="108" value="該当情報あり" style="text;html=1;strokeColor=none;fillColor=none;align=center;verticalAlign=middle;whiteSpace=wrap;rounded=0;" vertex="1" parent="85">
                    <mxGeometry x="410.6758426966293" y="247.38923076923078" width="57.303370786516844" height="30.923076923076916" as="geometry"/>
                </mxCell>
                <mxCell id="109" value="" style="ellipse;html=1;shape=endState;fillColor=strokeColor;" vertex="1" parent="85">
                    <mxGeometry x="382.0224719101124" y="470.00076923076915" width="28.651685393258422" height="30.923076923076916" as="geometry"/>
                </mxCell>
                <mxCell id="110" style="edgeStyle=none;html=1;exitX=0.5;exitY=1;exitDx=0;exitDy=0;entryX=1;entryY=0.25;entryDx=0;entryDy=0;" edge="1" parent="85" source="111" target="113">
                    <mxGeometry relative="1" as="geometry"/>
                </mxCell>
                <mxCell id="111" value="ユーザが「登録済み」か「未登録」かを選択するボタンを出力する" style="rounded=0;whiteSpace=wrap;html=1;" vertex="1" parent="85">
                    <mxGeometry x="219.66292134831463" y="144.3076923076923" width="191.0112359550562" height="30.923076923076916" as="geometry"/>
                </mxCell>
                <mxCell id="112" style="edgeStyle=none;html=1;exitX=1;exitY=0.75;exitDx=0;exitDy=0;entryX=0;entryY=0.5;entryDx=0;entryDy=0;" edge="1" parent="85" source="113" target="94">
                    <mxGeometry relative="1" as="geometry"/>
                </mxCell>
                <mxCell id="113" value="「未登録」を選択" style="rounded=0;whiteSpace=wrap;html=1;" vertex="1" parent="85">
                    <mxGeometry x="38.202247191011246" y="195.84615384615384" width="114.60674157303369" height="30.923076923076916" as="geometry"/>
                </mxCell>
                <mxCell id="200" value="" style="ellipse;fillColor=strokeColor;" vertex="1" parent="85">
                    <mxGeometry x="81" y="80" width="30" height="30" as="geometry"/>
                </mxCell>
                <mxCell id="401" style="edgeStyle=none;html=1;exitX=0.5;exitY=1;exitDx=0;exitDy=0;entryX=0.5;entryY=0;entryDx=0;entryDy=0;" edge="1" parent="85" source="400" target="109">
                    <mxGeometry relative="1" as="geometry"/>
                </mxCell>
                <mxCell id="400" value="ユーザに10000円を付与する" style="rounded=0;whiteSpace=wrap;html=1;" vertex="1" parent="85">
                    <mxGeometry x="336.3500000000001" y="410" width="120" height="28" as="geometry"/>
                </mxCell>
                <mxCell id="829" value="ゲームを開始する" style="text;html=1;strokeColor=none;fillColor=none;align=center;verticalAlign=middle;whiteSpace=wrap;rounded=0;" vertex="1" parent="85">
                    <mxGeometry x="190" y="500.92" width="100" height="30" as="geometry"/>
                </mxCell>
                <mxCell id="114" value="" style="group" vertex="1" connectable="0" parent="1">
                    <mxGeometry x="790" y="630" width="890" height="650" as="geometry"/>
                </mxCell>
                <mxCell id="115" value="登録済み" style="rounded=0;whiteSpace=wrap;html=1;" vertex="1" parent="114">
                    <mxGeometry y="30" width="200" height="40" as="geometry"/>
                </mxCell>
                <mxCell id="116" value="" style="rounded=0;whiteSpace=wrap;html=1;" vertex="1" parent="114">
                    <mxGeometry y="70" width="200" height="480" as="geometry"/>
                </mxCell>
                <mxCell id="117" value="" style="rounded=0;whiteSpace=wrap;html=1;" vertex="1" parent="114">
                    <mxGeometry x="200" y="70" width="320" height="480" as="geometry"/>
                </mxCell>
                <mxCell id="118" style="edgeStyle=none;html=1;exitX=0.5;exitY=1;exitDx=0;exitDy=0;entryX=0.5;entryY=0;entryDx=0;entryDy=0;" edge="1" parent="114" target="121">
                    <mxGeometry relative="1" as="geometry">
                        <mxPoint x="100" y="120" as="sourcePoint"/>
                    </mxGeometry>
                </mxCell>
                <mxCell id="120" style="edgeStyle=none;html=1;exitX=1;exitY=0.5;exitDx=0;exitDy=0;entryX=0;entryY=0.5;entryDx=0;entryDy=0;" edge="1" parent="114" source="121" target="140">
                    <mxGeometry relative="1" as="geometry"/>
                </mxCell>
                <mxCell id="121" value="ゲームの開始" style="rounded=0;whiteSpace=wrap;html=1;" vertex="1" parent="114">
                    <mxGeometry x="60" y="140" width="80" height="30" as="geometry"/>
                </mxCell>
                <mxCell id="130" value="" style="group" vertex="1" connectable="0" parent="114">
                    <mxGeometry width="520" height="70" as="geometry"/>
                </mxCell>
                <mxCell id="131" value="POOL" style="rounded=0;whiteSpace=wrap;html=1;" vertex="1" parent="130">
                    <mxGeometry width="520" height="30" as="geometry"/>
                </mxCell>
                <mxCell id="132" value="システム" style="rounded=0;whiteSpace=wrap;html=1;" vertex="1" parent="130">
                    <mxGeometry x="200" y="30" width="320" height="40" as="geometry"/>
                </mxCell>
                <mxCell id="135" value="" style="rhombus;whiteSpace=wrap;html=1;" vertex="1" parent="114">
                    <mxGeometry x="390" y="140" width="30" height="30" as="geometry"/>
                </mxCell>
                <mxCell id="183" style="edgeStyle=none;html=1;exitX=1;exitY=0.5;exitDx=0;exitDy=0;" edge="1" parent="114" source="140">
                    <mxGeometry relative="1" as="geometry">
                        <mxPoint x="390" y="155" as="targetPoint"/>
                    </mxGeometry>
                </mxCell>
                <mxCell id="140" value="賭け金情報の確認" style="rounded=0;whiteSpace=wrap;html=1;" vertex="1" parent="114">
                    <mxGeometry x="230" y="140" width="120" height="30" as="geometry"/>
                </mxCell>
                <mxCell id="144" value="「ヒット」、「スタンド」、「サレンダー」を選択するフォームに移動する" style="rounded=0;whiteSpace=wrap;html=1;" vertex="1" parent="114">
                    <mxGeometry x="280" y="440" width="195" height="40" as="geometry"/>
                </mxCell>
                <mxCell id="538" value="カードのシャッフル" style="rounded=0;whiteSpace=wrap;html=1;" vertex="1" parent="114">
                    <mxGeometry x="290" y="250" width="120" height="30" as="geometry"/>
                </mxCell>
                <mxCell id="197" style="edgeStyle=none;html=1;exitX=1;exitY=0.5;exitDx=0;exitDy=0;entryX=1.055;entryY=0.448;entryDx=0;entryDy=0;entryPerimeter=0;" edge="1" parent="114" source="135" target="538">
                    <mxGeometry relative="1" as="geometry">
                        <mxPoint x="420" y="270" as="targetPoint"/>
                    </mxGeometry>
                </mxCell>
                <mxCell id="184" value="賭け金を1000円にする" style="rounded=0;whiteSpace=wrap;html=1;" vertex="1" parent="114">
                    <mxGeometry x="300" y="200" width="100" height="30" as="geometry"/>
                </mxCell>
                <mxCell id="185" style="edgeStyle=none;html=1;exitX=0.5;exitY=1;exitDx=0;exitDy=0;entryX=0.5;entryY=0;entryDx=0;entryDy=0;" edge="1" parent="114" source="135" target="184">
                    <mxGeometry relative="1" as="geometry"/>
                </mxCell>
                <mxCell id="190" style="edgeStyle=none;html=1;exitX=0.5;exitY=1;exitDx=0;exitDy=0;entryX=0.5;entryY=0;entryDx=0;entryDy=0;" edge="1" parent="114" source="184" target="538">
                    <mxGeometry relative="1" as="geometry"/>
                </mxCell>
                <mxCell id="191" value="ユーザのカードを２枚NPCのカードを１枚表示する" style="rounded=0;whiteSpace=wrap;html=1;" vertex="1" parent="114">
                    <mxGeometry x="295" y="360" width="120" height="60" as="geometry"/>
                </mxCell>
                <mxCell id="154" value="" style="group" vertex="1" connectable="0" parent="1">
                    <mxGeometry x="210" y="640" width="1055" height="650" as="geometry"/>
                </mxCell>
                <mxCell id="155" value="登録済み" style="rounded=0;whiteSpace=wrap;html=1;" vertex="1" parent="154">
                    <mxGeometry y="30" width="200" height="40" as="geometry"/>
                </mxCell>
                <mxCell id="156" value="" style="rounded=0;whiteSpace=wrap;html=1;" vertex="1" parent="154">
                    <mxGeometry y="70" width="200" height="420" as="geometry"/>
                </mxCell>
                <mxCell id="157" value="" style="rounded=0;whiteSpace=wrap;html=1;" vertex="1" parent="154">
                    <mxGeometry x="200" y="70" width="320" height="420" as="geometry"/>
                </mxCell>
                <mxCell id="158" style="edgeStyle=none;html=1;exitX=0.5;exitY=1;exitDx=0;exitDy=0;entryX=0.5;entryY=0;entryDx=0;entryDy=0;" edge="1" parent="154" target="161">
                    <mxGeometry relative="1" as="geometry">
                        <mxPoint x="100" y="120" as="sourcePoint"/>
                    </mxGeometry>
                </mxCell>
                <mxCell id="160" style="edgeStyle=none;html=1;exitX=1;exitY=0.5;exitDx=0;exitDy=0;entryX=0;entryY=0.5;entryDx=0;entryDy=0;" edge="1" parent="154" source="161" target="174">
                    <mxGeometry relative="1" as="geometry"/>
                </mxCell>
                <mxCell id="161" value="賭け金の入力" style="rounded=0;whiteSpace=wrap;html=1;" vertex="1" parent="154">
                    <mxGeometry x="60" y="140" width="80" height="30" as="geometry"/>
                </mxCell>
                <mxCell id="162" value="賭け金の確認" style="rounded=0;whiteSpace=wrap;html=1;" vertex="1" parent="154">
                    <mxGeometry x="250" y="220" width="110" height="30" as="geometry"/>
                </mxCell>
                <mxCell id="163" style="edgeStyle=none;html=1;exitX=1;exitY=0.5;exitDx=0;exitDy=0;entryX=0;entryY=0.5;entryDx=0;entryDy=0;" edge="1" parent="154" source="162" target="169">
                    <mxGeometry relative="1" as="geometry">
                        <mxPoint x="340" y="295" as="sourcePoint"/>
                    </mxGeometry>
                </mxCell>
                <mxCell id="164" value="" style="group" vertex="1" connectable="0" parent="154">
                    <mxGeometry width="520" height="70" as="geometry"/>
                </mxCell>
                <mxCell id="165" value="POOL" style="rounded=0;whiteSpace=wrap;html=1;" vertex="1" parent="164">
                    <mxGeometry width="520" height="30" as="geometry"/>
                </mxCell>
                <mxCell id="166" value="システム" style="rounded=0;whiteSpace=wrap;html=1;" vertex="1" parent="164">
                    <mxGeometry x="200" y="30" width="320" height="40" as="geometry"/>
                </mxCell>
                <mxCell id="167" style="edgeStyle=none;html=1;exitX=0.5;exitY=0;exitDx=0;exitDy=0;entryX=1;entryY=0.25;entryDx=0;entryDy=0;" edge="1" parent="154" source="169" target="174">
                    <mxGeometry relative="1" as="geometry">
                        <Array as="points">
                            <mxPoint x="415" y="150"/>
                        </Array>
                    </mxGeometry>
                </mxCell>
                <mxCell id="168" style="edgeStyle=none;html=1;exitX=0.5;exitY=1;exitDx=0;exitDy=0;entryX=0.5;entryY=0;entryDx=0;entryDy=0;" edge="1" parent="154" source="169" target="178">
                    <mxGeometry relative="1" as="geometry"/>
                </mxCell>
                <mxCell id="169" value="" style="rhombus;whiteSpace=wrap;html=1;" vertex="1" parent="154">
                    <mxGeometry x="400" y="220" width="30" height="30" as="geometry"/>
                </mxCell>
                <mxCell id="170" value="所持金以上" style="text;html=1;strokeColor=none;fillColor=none;align=center;verticalAlign=middle;whiteSpace=wrap;rounded=0;" vertex="1" parent="154">
                    <mxGeometry x="430" y="170" width="60" height="30" as="geometry"/>
                </mxCell>
                <mxCell id="171" value="所持金以下" style="text;html=1;strokeColor=none;fillColor=none;align=center;verticalAlign=middle;whiteSpace=wrap;rounded=0;" vertex="1" parent="154">
                    <mxGeometry x="430" y="265" width="60" height="30" as="geometry"/>
                </mxCell>
                <mxCell id="172" value="" style="ellipse;html=1;shape=endState;fillColor=strokeColor;" vertex="1" parent="154">
                    <mxGeometry x="400" y="400" width="30" height="30" as="geometry"/>
                </mxCell>
                <mxCell id="173" style="edgeStyle=none;html=1;exitX=0.5;exitY=1;exitDx=0;exitDy=0;entryX=1;entryY=0.25;entryDx=0;entryDy=0;" edge="1" parent="154" source="174" target="176">
                    <mxGeometry relative="1" as="geometry"/>
                </mxCell>
                <mxCell id="174" value="数字を入力する入力フォームを出力する" style="rounded=0;whiteSpace=wrap;html=1;" vertex="1" parent="154">
                    <mxGeometry x="230" y="140" width="120" height="30" as="geometry"/>
                </mxCell>
                <mxCell id="175" style="edgeStyle=none;html=1;exitX=1;exitY=0.75;exitDx=0;exitDy=0;entryX=0;entryY=0.5;entryDx=0;entryDy=0;" edge="1" parent="154" source="176" target="162">
                    <mxGeometry relative="1" as="geometry"/>
                </mxCell>
                <mxCell id="176" value="賭け金の入力" style="rounded=0;whiteSpace=wrap;html=1;" vertex="1" parent="154">
                    <mxGeometry x="40" y="210" width="120" height="30" as="geometry"/>
                </mxCell>
                <mxCell id="177" style="edgeStyle=none;html=1;exitX=0.5;exitY=1;exitDx=0;exitDy=0;entryX=0.5;entryY=0;entryDx=0;entryDy=0;" edge="1" parent="154" source="178" target="172">
                    <mxGeometry relative="1" as="geometry"/>
                </mxCell>
                <mxCell id="178" value="賭け金設定完了" style="rounded=0;whiteSpace=wrap;html=1;" vertex="1" parent="154">
                    <mxGeometry x="355" y="320" width="120" height="40" as="geometry"/>
                </mxCell>
                <mxCell id="136" value="未入力" style="text;html=1;strokeColor=none;fillColor=none;align=center;verticalAlign=middle;whiteSpace=wrap;rounded=0;" vertex="1" parent="154">
                    <mxGeometry x="870" y="170" width="60" height="30" as="geometry"/>
                </mxCell>
                <mxCell id="187" value="カードをプレイヤーとNPCに２枚ずつ配布する" style="rounded=0;whiteSpace=wrap;html=1;" vertex="1" parent="154">
                    <mxGeometry x="860" y="295" width="150" height="40" as="geometry"/>
                </mxCell>
                <mxCell id="137" value="入力済み" style="text;html=1;strokeColor=none;fillColor=none;align=center;verticalAlign=middle;whiteSpace=wrap;rounded=0;" vertex="1" parent="154">
                    <mxGeometry x="995" y="190" width="60" height="30" as="geometry"/>
                </mxCell>
                <mxCell id="138" value="" style="ellipse;html=1;shape=endState;fillColor=strokeColor;" vertex="1" parent="154">
                    <mxGeometry x="942.5" y="500" width="30" height="30" as="geometry"/>
                </mxCell>
                <mxCell id="194" value="自分のカードと相手のカードを確認する" style="rounded=0;whiteSpace=wrap;html=1;" vertex="1" parent="154">
                    <mxGeometry x="620" y="420" width="120" height="60" as="geometry"/>
                </mxCell>
                <mxCell id="202" value="" style="ellipse;fillColor=strokeColor;" vertex="1" parent="154">
                    <mxGeometry x="85" y="90" width="30" height="30" as="geometry"/>
                </mxCell>
                <mxCell id="201" value="" style="ellipse;fillColor=strokeColor;" vertex="1" parent="154">
                    <mxGeometry x="665" y="80" width="30" height="30" as="geometry"/>
                </mxCell>
                <mxCell id="831" value="ヒット&lt;span style=&quot;color: rgba(0, 0, 0, 0); font-family: monospace; font-size: 0px; text-align: start;&quot;&gt;%3CmxGraphModel%3E%3Croot%3E%3CmxCell%20id%3D%220%22%2F%3E%3CmxCell%20id%3D%221%22%20parent%3D%220%22%2F%3E%3CmxCell%20id%3D%222%22%20value%3D%22%E6%8E%9B%E3%81%91%E9%87%91%E3%82%92%E5%85%A5%E5%8A%9B%E3%81%99%E3%82%8B%22%20style%3D%22text%3Bhtml%3D1%3BstrokeColor%3Dnone%3BfillColor%3Dnone%3Balign%3Dcenter%3BverticalAlign%3Dmiddle%3BwhiteSpace%3Dwrap%3Brounded%3D0%3B%22%20vertex%3D%221%22%20parent%3D%221%22%3E%3CmxGeometry%20x%3D%22410%22%20y%3D%22610%22%20width%3D%22100%22%20height%3D%2230%22%20as%3D%22geometry%22%2F%3E%3C%2FmxCell%3E%3C%2Froot%3E%3C%2FmxGraphModel%3E&lt;/span&gt;" style="text;html=1;strokeColor=none;fillColor=none;align=center;verticalAlign=middle;whiteSpace=wrap;rounded=0;" vertex="1" parent="154">
                    <mxGeometry x="200" y="500" width="100" height="30" as="geometry"/>
                </mxCell>
                <mxCell id="182" style="edgeStyle=none;html=1;exitX=0.5;exitY=1;exitDx=0;exitDy=0;entryX=0.5;entryY=0;entryDx=0;entryDy=0;" edge="1" parent="1" source="144" target="138">
                    <mxGeometry relative="1" as="geometry"/>
                </mxCell>
                <mxCell id="196" style="edgeStyle=none;html=1;exitX=1;exitY=0.5;exitDx=0;exitDy=0;" edge="1" parent="1" source="194" target="144">
                    <mxGeometry relative="1" as="geometry"/>
                </mxCell>
                <mxCell id="277" value="" style="group" vertex="1" connectable="0" parent="1">
                    <mxGeometry x="200" y="1170" width="1055" height="700" as="geometry"/>
                </mxCell>
                <mxCell id="278" value="登録済み" style="rounded=0;whiteSpace=wrap;html=1;" vertex="1" parent="277">
                    <mxGeometry y="30" width="200" height="40" as="geometry"/>
                </mxCell>
                <mxCell id="279" value="" style="rounded=0;whiteSpace=wrap;html=1;" vertex="1" parent="277">
                    <mxGeometry y="70" width="200" height="630" as="geometry"/>
                </mxCell>
                <mxCell id="280" value="" style="rounded=0;whiteSpace=wrap;html=1;" vertex="1" parent="277">
                    <mxGeometry x="200" y="70" width="320" height="630" as="geometry"/>
                </mxCell>
                <mxCell id="281" style="edgeStyle=none;html=1;exitX=0.5;exitY=1;exitDx=0;exitDy=0;entryX=0;entryY=0.5;entryDx=0;entryDy=0;" edge="1" parent="277" target="398">
                    <mxGeometry relative="1" as="geometry">
                        <mxPoint x="100" y="120" as="sourcePoint"/>
                    </mxGeometry>
                </mxCell>
                <mxCell id="282" style="edgeStyle=none;html=1;exitX=1;exitY=0.5;exitDx=0;exitDy=0;entryX=0;entryY=0.5;entryDx=0;entryDy=0;" edge="1" parent="277" source="283" target="296">
                    <mxGeometry relative="1" as="geometry"/>
                </mxCell>
                <mxCell id="283" value="ヒットする" style="rounded=0;whiteSpace=wrap;html=1;" vertex="1" parent="277">
                    <mxGeometry x="60" y="170" width="80" height="30" as="geometry"/>
                </mxCell>
                <mxCell id="391" style="edgeStyle=none;html=1;exitX=0;exitY=0.5;exitDx=0;exitDy=0;entryX=0.5;entryY=0;entryDx=0;entryDy=0;" edge="1" parent="277" source="284" target="298">
                    <mxGeometry relative="1" as="geometry"/>
                </mxCell>
                <mxCell id="284" value="カードの表示" style="rounded=0;whiteSpace=wrap;html=1;" vertex="1" parent="277">
                    <mxGeometry x="270" y="230" width="110" height="30" as="geometry"/>
                </mxCell>
                <mxCell id="286" value="" style="group" vertex="1" connectable="0" parent="277">
                    <mxGeometry width="520" height="70" as="geometry"/>
                </mxCell>
                <mxCell id="287" value="POOL" style="rounded=0;whiteSpace=wrap;html=1;" vertex="1" parent="286">
                    <mxGeometry width="520" height="30" as="geometry"/>
                </mxCell>
                <mxCell id="288" value="システム" style="rounded=0;whiteSpace=wrap;html=1;" vertex="1" parent="286">
                    <mxGeometry x="200" y="30" width="320" height="40" as="geometry"/>
                </mxCell>
                <mxCell id="390" style="edgeStyle=none;html=1;exitX=0.5;exitY=1;exitDx=0;exitDy=0;entryX=0.452;entryY=0;entryDx=0;entryDy=0;entryPerimeter=0;" edge="1" parent="277" source="296" target="284">
                    <mxGeometry relative="1" as="geometry"/>
                </mxCell>
                <mxCell id="296" value="プレイヤーにカードを配布" style="rounded=0;whiteSpace=wrap;html=1;" vertex="1" parent="277">
                    <mxGeometry x="260" y="170" width="120" height="30" as="geometry"/>
                </mxCell>
                <mxCell id="395" style="edgeStyle=none;html=1;exitX=0.5;exitY=1;exitDx=0;exitDy=0;entryX=0.5;entryY=0;entryDx=0;entryDy=0;" edge="1" parent="277" source="298" target="392">
                    <mxGeometry relative="1" as="geometry"/>
                </mxCell>
                <mxCell id="298" value="カードの確認" style="rounded=0;whiteSpace=wrap;html=1;" vertex="1" parent="277">
                    <mxGeometry x="60" y="265" width="120" height="30" as="geometry"/>
                </mxCell>
                <mxCell id="311" value="" style="ellipse;fillColor=strokeColor;" vertex="1" parent="277">
                    <mxGeometry x="85" y="90" width="30" height="30" as="geometry"/>
                </mxCell>
                <mxCell id="397" style="edgeStyle=none;html=1;exitX=1;exitY=0.5;exitDx=0;exitDy=0;entryX=0.167;entryY=0.563;entryDx=0;entryDy=0;entryPerimeter=0;" edge="1" parent="277" source="392" target="396">
                    <mxGeometry relative="1" as="geometry"/>
                </mxCell>
                <mxCell id="392" value="21を超えているか確認" style="rounded=0;whiteSpace=wrap;html=1;" vertex="1" parent="277">
                    <mxGeometry x="265" y="295" width="120" height="30" as="geometry"/>
                </mxCell>
                <mxCell id="393" value="" style="ellipse;html=1;shape=endState;fillColor=strokeColor;" vertex="1" parent="277">
                    <mxGeometry x="330" y="660" width="30" height="30" as="geometry"/>
                </mxCell>
                <mxCell id="403" style="edgeStyle=none;html=1;exitX=0.5;exitY=0;exitDx=0;exitDy=0;entryX=1;entryY=1;entryDx=0;entryDy=0;" edge="1" parent="277" source="396" target="398">
                    <mxGeometry relative="1" as="geometry"/>
                </mxCell>
                <mxCell id="407" style="edgeStyle=none;html=1;exitX=0.5;exitY=1;exitDx=0;exitDy=0;entryX=0.5;entryY=0;entryDx=0;entryDy=0;" edge="1" parent="277" source="396" target="454">
                    <mxGeometry relative="1" as="geometry"/>
                </mxCell>
                <mxCell id="396" value="" style="rhombus;whiteSpace=wrap;html=1;" vertex="1" parent="277">
                    <mxGeometry x="420" y="290" width="40" height="40" as="geometry"/>
                </mxCell>
                <mxCell id="402" style="edgeStyle=none;html=1;exitX=0.5;exitY=1;exitDx=0;exitDy=0;entryX=0.5;entryY=0;entryDx=0;entryDy=0;" edge="1" parent="277" source="398" target="283">
                    <mxGeometry relative="1" as="geometry"/>
                </mxCell>
                <mxCell id="398" value="「ヒット」、「スタンド」、「サレンダー」を選択するボタンの表示" style="rounded=0;whiteSpace=wrap;html=1;" vertex="1" parent="277">
                    <mxGeometry x="230" y="100" width="210" height="40" as="geometry"/>
                </mxCell>
                <mxCell id="406" value="21より大きい" style="text;html=1;strokeColor=none;fillColor=none;align=center;verticalAlign=middle;whiteSpace=wrap;rounded=0;" vertex="1" parent="277">
                    <mxGeometry x="410" y="340" width="60" height="30" as="geometry"/>
                </mxCell>
                <mxCell id="408" value="小さい" style="text;html=1;strokeColor=none;fillColor=none;align=center;verticalAlign=middle;whiteSpace=wrap;rounded=0;" vertex="1" parent="277">
                    <mxGeometry x="450" y="170" width="60" height="30" as="geometry"/>
                </mxCell>
                <mxCell id="455" style="edgeStyle=none;html=1;exitX=0;exitY=0.5;exitDx=0;exitDy=0;entryX=1;entryY=0.5;entryDx=0;entryDy=0;" edge="1" parent="277" source="454" target="546">
                    <mxGeometry relative="1" as="geometry"/>
                </mxCell>
                <mxCell id="454" value="「BUST]を出力をし賭け金の回収" style="rounded=0;whiteSpace=wrap;html=1;" vertex="1" parent="277">
                    <mxGeometry x="385" y="380" width="120" height="40" as="geometry"/>
                </mxCell>
                <mxCell id="590" style="edgeStyle=none;html=1;exitX=0;exitY=0.5;exitDx=0;exitDy=0;entryX=1;entryY=0.5;entryDx=0;entryDy=0;" edge="1" parent="277" source="546" target="589">
                    <mxGeometry relative="1" as="geometry"/>
                </mxCell>
                <mxCell id="546" value="「ゲームを継続する」と「ゲームを継続しない」を選択する画面を出力" style="rounded=0;whiteSpace=wrap;html=1;" vertex="1" parent="277">
                    <mxGeometry x="240" y="370" width="120" height="60" as="geometry"/>
                </mxCell>
                <mxCell id="609" style="edgeStyle=none;html=1;exitX=1;exitY=0.75;exitDx=0;exitDy=0;entryX=0.5;entryY=0;entryDx=0;entryDy=0;" edge="1" parent="277" source="589" target="608">
                    <mxGeometry relative="1" as="geometry"/>
                </mxCell>
                <mxCell id="589" value="ボタンを選択する" style="rounded=0;whiteSpace=wrap;html=1;" vertex="1" parent="277">
                    <mxGeometry x="40" y="410" width="120" height="60" as="geometry"/>
                </mxCell>
                <mxCell id="611" style="edgeStyle=none;html=1;exitX=0.5;exitY=1;exitDx=0;exitDy=0;entryX=0.5;entryY=0;entryDx=0;entryDy=0;" edge="1" parent="277" source="608" target="610">
                    <mxGeometry relative="1" as="geometry"/>
                </mxCell>
                <mxCell id="608" value="内容確認" style="rounded=0;whiteSpace=wrap;html=1;" vertex="1" parent="277">
                    <mxGeometry x="290" y="470" width="120" height="40" as="geometry"/>
                </mxCell>
                <mxCell id="613" style="edgeStyle=none;html=1;exitX=0;exitY=0.5;exitDx=0;exitDy=0;entryX=0.556;entryY=-0.038;entryDx=0;entryDy=0;entryPerimeter=0;" edge="1" parent="277" source="610" target="612">
                    <mxGeometry relative="1" as="geometry"/>
                </mxCell>
                <mxCell id="615" style="edgeStyle=none;html=1;exitX=1;exitY=0.5;exitDx=0;exitDy=0;entryX=0.5;entryY=0;entryDx=0;entryDy=0;" edge="1" parent="277" source="610" target="614">
                    <mxGeometry relative="1" as="geometry"/>
                </mxCell>
                <mxCell id="610" value="" style="rhombus;whiteSpace=wrap;html=1;" vertex="1" parent="277">
                    <mxGeometry x="330" y="540" width="40" height="35" as="geometry"/>
                </mxCell>
                <mxCell id="616" style="edgeStyle=none;html=1;exitX=0.5;exitY=1;exitDx=0;exitDy=0;entryX=0;entryY=0;entryDx=0;entryDy=0;" edge="1" parent="277" source="612" target="393">
                    <mxGeometry relative="1" as="geometry"/>
                </mxCell>
                <mxCell id="612" value="賭け金とゲーム開始を選択する画面を出力する" style="rounded=0;whiteSpace=wrap;html=1;" vertex="1" parent="277">
                    <mxGeometry x="225" y="588.5" width="120" height="37" as="geometry"/>
                </mxCell>
                <mxCell id="617" style="edgeStyle=none;html=1;exitX=0.5;exitY=1;exitDx=0;exitDy=0;" edge="1" parent="277" source="614">
                    <mxGeometry relative="1" as="geometry">
                        <mxPoint x="340" y="675" as="targetPoint"/>
                    </mxGeometry>
                </mxCell>
                <mxCell id="614" value="GUIウィンドウに「RETRY]と「OK」のボタンを出力" style="rounded=0;whiteSpace=wrap;html=1;" vertex="1" parent="277">
                    <mxGeometry x="350" y="577" width="120" height="60" as="geometry"/>
                </mxCell>
                <mxCell id="802" value="ゲームを継続する" style="text;html=1;strokeColor=none;fillColor=none;align=center;verticalAlign=middle;whiteSpace=wrap;rounded=0;" vertex="1" parent="277">
                    <mxGeometry x="240" y="540" width="60" height="30" as="geometry"/>
                </mxCell>
                <mxCell id="803" value="ゲームを継続しない" style="text;html=1;strokeColor=none;fillColor=none;align=center;verticalAlign=middle;whiteSpace=wrap;rounded=0;" vertex="1" parent="277">
                    <mxGeometry x="385" y="540" width="90" height="30" as="geometry"/>
                </mxCell>
                <mxCell id="832" value="スタンド" style="text;html=1;strokeColor=none;fillColor=none;align=center;verticalAlign=middle;whiteSpace=wrap;rounded=0;" vertex="1" parent="277">
                    <mxGeometry x="980" y="30" width="100" height="30" as="geometry"/>
                </mxCell>
                <mxCell id="314" value="" style="group" vertex="1" connectable="0" parent="1">
                    <mxGeometry x="800" y="1240" width="1330" height="1080" as="geometry"/>
                </mxCell>
                <mxCell id="315" value="登録済み" style="rounded=0;whiteSpace=wrap;html=1;" vertex="1" parent="314">
                    <mxGeometry y="46.95652173913044" width="252.13270142180093" height="62.608695652173914" as="geometry"/>
                </mxCell>
                <mxCell id="316" value="" style="rounded=0;whiteSpace=wrap;html=1;" vertex="1" parent="314">
                    <mxGeometry y="109.56521739130434" width="201.70616113744074" height="970.4347826086956" as="geometry"/>
                </mxCell>
                <mxCell id="317" value="" style="rounded=0;whiteSpace=wrap;html=1;" vertex="1" parent="314">
                    <mxGeometry x="201.70616113744074" y="15.652173913043478" width="630.3317535545024" height="1064.3478260869565" as="geometry"/>
                </mxCell>
                <mxCell id="318" style="edgeStyle=none;html=1;exitX=0.5;exitY=1;exitDx=0;exitDy=0;entryX=0.5;entryY=0;entryDx=0;entryDy=0;" edge="1" parent="314" target="320">
                    <mxGeometry relative="1" as="geometry">
                        <mxPoint x="126.06635071090047" y="187.82608695652175" as="sourcePoint"/>
                    </mxGeometry>
                </mxCell>
                <mxCell id="319" style="edgeStyle=none;html=1;exitX=1;exitY=0.5;exitDx=0;exitDy=0;entryX=0;entryY=0.5;entryDx=0;entryDy=0;" edge="1" parent="314" source="320" target="333">
                    <mxGeometry relative="1" as="geometry"/>
                </mxCell>
                <mxCell id="320" value="スタンドする" style="rounded=0;whiteSpace=wrap;html=1;" vertex="1" parent="314">
                    <mxGeometry x="75.63981042654028" y="219.1304347826087" width="100.85308056872037" height="46.95652173913044" as="geometry"/>
                </mxCell>
                <mxCell id="438" style="edgeStyle=none;html=1;exitX=0.5;exitY=1;exitDx=0;exitDy=0;entryX=0.5;entryY=0;entryDx=0;entryDy=0;" edge="1" parent="314" source="321" target="440">
                    <mxGeometry relative="1" as="geometry"/>
                </mxCell>
                <mxCell id="447" style="edgeStyle=none;html=1;exitX=0;exitY=0.5;exitDx=0;exitDy=0;entryX=0.5;entryY=0;entryDx=0;entryDy=0;" edge="1" parent="314" source="440" target="458">
                    <mxGeometry relative="1" as="geometry">
                        <Array as="points">
                            <mxPoint x="284" y="450"/>
                        </Array>
                    </mxGeometry>
                </mxCell>
                <mxCell id="476" style="edgeStyle=none;html=1;exitX=0;exitY=0.5;exitDx=0;exitDy=0;entryX=0.437;entryY=0.003;entryDx=0;entryDy=0;entryPerimeter=0;" edge="1" parent="314" source="321" target="475">
                    <mxGeometry relative="1" as="geometry">
                        <Array as="points">
                            <mxPoint x="88.24644549763032" y="344.3478260869565"/>
                        </Array>
                    </mxGeometry>
                </mxCell>
                <mxCell id="321" value="NPCのカード合計を出力する" style="rounded=0;whiteSpace=wrap;html=1;" vertex="1" parent="314">
                    <mxGeometry x="381.3290995260664" y="328.695652173913" width="138.67298578199052" height="46.95652173913044" as="geometry"/>
                </mxCell>
                <mxCell id="323" value="" style="group" vertex="1" connectable="0" parent="314">
                    <mxGeometry width="832.0379146919431" height="109.56521739130434" as="geometry"/>
                </mxCell>
                <mxCell id="324" value="POOL" style="rounded=0;whiteSpace=wrap;html=1;" vertex="1" parent="323">
                    <mxGeometry width="832.0379146919431" height="46.95652173913044" as="geometry"/>
                </mxCell>
                <mxCell id="325" value="システム" style="rounded=0;whiteSpace=wrap;html=1;" vertex="1" parent="323">
                    <mxGeometry x="201.70616113744074" y="46.95652173913044" width="630.3317535545024" height="62.608695652173914" as="geometry"/>
                </mxCell>
                <mxCell id="330" value="17以下" style="text;html=1;strokeColor=none;fillColor=none;align=center;verticalAlign=middle;whiteSpace=wrap;rounded=0;" vertex="1" parent="314">
                    <mxGeometry x="576.7535545023696" y="438.2608695652174" width="75.63981042654028" height="46.95652173913044" as="geometry"/>
                </mxCell>
                <mxCell id="409" style="edgeStyle=none;html=1;exitX=0.5;exitY=1;exitDx=0;exitDy=0;entryX=0.5;entryY=0;entryDx=0;entryDy=0;" edge="1" parent="314" source="333" target="321">
                    <mxGeometry relative="1" as="geometry"/>
                </mxCell>
                <mxCell id="333" value="NPCの2枚目のカードを確認" style="rounded=0;whiteSpace=wrap;html=1;" vertex="1" parent="314">
                    <mxGeometry x="374.35404645333125" y="219.1304347826087" width="151.27962085308056" height="46.95652173913044" as="geometry"/>
                </mxCell>
                <mxCell id="444" style="edgeStyle=none;html=1;exitX=1;exitY=0;exitDx=0;exitDy=0;entryX=1;entryY=0.5;entryDx=0;entryDy=0;" edge="1" parent="314" source="337" target="321">
                    <mxGeometry relative="1" as="geometry">
                        <Array as="points">
                            <mxPoint x="681" y="360"/>
                        </Array>
                    </mxGeometry>
                </mxCell>
                <mxCell id="337" value="カードを引く" style="rounded=0;whiteSpace=wrap;html=1;" vertex="1" parent="314">
                    <mxGeometry x="580.3783886255924" y="489.99826086956523" width="100.85308056872037" height="46.95652173913044" as="geometry"/>
                </mxCell>
                <mxCell id="338" value="" style="ellipse;fillColor=strokeColor;" vertex="1" parent="314">
                    <mxGeometry x="107.16" y="150" width="37.82" height="37.83" as="geometry"/>
                </mxCell>
                <mxCell id="441" style="edgeStyle=none;html=1;exitX=1;exitY=0.5;exitDx=0;exitDy=0;entryX=0.5;entryY=0;entryDx=0;entryDy=0;" edge="1" parent="314" source="440" target="337">
                    <mxGeometry relative="1" as="geometry"/>
                </mxCell>
                <mxCell id="443" style="edgeStyle=none;html=1;exitX=0.5;exitY=1;exitDx=0;exitDy=0;entryX=0.5;entryY=0;entryDx=0;entryDy=0;" edge="1" parent="314" source="440" target="442">
                    <mxGeometry relative="1" as="geometry"/>
                </mxCell>
                <mxCell id="440" value="" style="rhombus;whiteSpace=wrap;html=1;" vertex="1" parent="314">
                    <mxGeometry x="422.92909952606635" y="410.87347826086955" width="55.46919431279621" height="70.43478260869566" as="geometry"/>
                </mxCell>
                <mxCell id="461" style="edgeStyle=none;html=1;exitX=0.5;exitY=1;exitDx=0;exitDy=0;entryX=0.471;entryY=0.125;entryDx=0;entryDy=0;entryPerimeter=0;" edge="1" parent="314" source="442" target="460">
                    <mxGeometry relative="1" as="geometry"/>
                </mxCell>
                <mxCell id="442" value="プレイヤーと数を比較する" style="rounded=0;whiteSpace=wrap;html=1;" vertex="1" parent="314">
                    <mxGeometry x="393.2688625592417" y="536.9547826086956" width="132.36966824644549" height="46.95652173913044" as="geometry"/>
                </mxCell>
                <mxCell id="448" value="18以上" style="text;html=1;strokeColor=none;fillColor=none;align=center;verticalAlign=middle;whiteSpace=wrap;rounded=0;" vertex="1" parent="314">
                    <mxGeometry x="450.0022274881516" y="480.5239130434783" width="75.63981042654028" height="46.95652173913044" as="geometry"/>
                </mxCell>
                <mxCell id="449" value="22以上" style="text;html=1;strokeColor=none;fillColor=none;align=center;verticalAlign=middle;whiteSpace=wrap;rounded=0;" vertex="1" parent="314">
                    <mxGeometry x="325.25118483412325" y="422.6086956521739" width="75.63981042654028" height="46.95652173913044" as="geometry"/>
                </mxCell>
                <mxCell id="542" style="edgeStyle=none;html=1;exitX=0.5;exitY=1;exitDx=0;exitDy=0;entryX=0.5;entryY=0;entryDx=0;entryDy=0;" edge="1" parent="314" source="460" target="541">
                    <mxGeometry relative="1" as="geometry"/>
                </mxCell>
                <mxCell id="460" value="" style="rhombus;whiteSpace=wrap;html=1;" vertex="1" parent="314">
                    <mxGeometry x="434.2404265402844" y="610.0021739130435" width="50.426540284360186" height="62.608695652173914" as="geometry"/>
                </mxCell>
                <mxCell id="458" value="勝利出力" style="rounded=0;whiteSpace=wrap;html=1;" vertex="1" parent="314">
                    <mxGeometry x="208.00009478672985" y="612.35" width="151.27962085308056" height="57.913043478260875" as="geometry"/>
                </mxCell>
                <mxCell id="463" style="edgeStyle=none;html=1;exitX=0;exitY=0.5;exitDx=0;exitDy=0;entryX=1;entryY=0.5;entryDx=0;entryDy=0;" edge="1" parent="314" source="460" target="458">
                    <mxGeometry relative="1" as="geometry"/>
                </mxCell>
                <mxCell id="467" value="NPCの数の方が21に近い" style="text;html=1;strokeColor=none;fillColor=none;align=center;verticalAlign=middle;whiteSpace=wrap;rounded=0;" vertex="1" parent="314">
                    <mxGeometry x="550.0048815165876" y="610.004347826087" width="119.76303317535545" height="46.95652173913044" as="geometry"/>
                </mxCell>
                <mxCell id="466" value="ユーザの数の方が21に近い" style="text;html=1;strokeColor=none;fillColor=none;align=center;verticalAlign=middle;whiteSpace=wrap;rounded=0;" vertex="1" parent="314">
                    <mxGeometry x="352.3009952606635" y="640.004347826087" width="81.94312796208531" height="46.95652173913044" as="geometry"/>
                </mxCell>
                <mxCell id="477" style="edgeStyle=none;html=1;exitX=1;exitY=0.5;exitDx=0;exitDy=0;entryX=0;entryY=0.5;entryDx=0;entryDy=0;" edge="1" parent="314" source="475" target="442">
                    <mxGeometry relative="1" as="geometry"/>
                </mxCell>
                <mxCell id="475" value="ディーラーのカードを確認" style="rounded=0;whiteSpace=wrap;html=1;" vertex="1" parent="314">
                    <mxGeometry x="25.213270142180093" y="516.5217391304348" width="151.27962085308056" height="57.913043478260875" as="geometry"/>
                </mxCell>
                <mxCell id="459" value="敗北出力" style="rounded=0;whiteSpace=wrap;html=1;" vertex="1" parent="314">
                    <mxGeometry x="550.0083886255923" y="720.0008695652174" width="151.27962085308056" height="62.608695652173914" as="geometry"/>
                </mxCell>
                <mxCell id="462" style="edgeStyle=none;html=1;exitX=1;exitY=0.5;exitDx=0;exitDy=0;entryX=0.5;entryY=0;entryDx=0;entryDy=0;" edge="1" parent="314" source="460" target="459">
                    <mxGeometry relative="1" as="geometry">
                        <mxPoint x="529.4786729857819" y="813.9130434782609" as="targetPoint"/>
                        <Array as="points">
                            <mxPoint x="626" y="641"/>
                        </Array>
                    </mxGeometry>
                </mxCell>
                <mxCell id="541" value="引き分け出力" style="rounded=0;whiteSpace=wrap;html=1;" vertex="1" parent="314">
                    <mxGeometry x="384.71222748815165" y="720.0008695652174" width="151.27962085308056" height="62.608695652173914" as="geometry"/>
                </mxCell>
                <mxCell id="548" value="勝負を継続するかしないか選択する画面を出力" style="rounded=0;whiteSpace=wrap;html=1;" vertex="1" parent="314">
                    <mxGeometry x="394.4007438016529" y="840" width="131.90082644628097" height="67.5" as="geometry"/>
                </mxCell>
                <mxCell id="543" style="edgeStyle=none;html=1;entryX=0.5;entryY=0;entryDx=0;entryDy=0;exitX=0.5;exitY=1;exitDx=0;exitDy=0;" edge="1" parent="314" source="541" target="548">
                    <mxGeometry relative="1" as="geometry">
                        <mxPoint x="450.66115702479334" y="618.75" as="sourcePoint"/>
                    </mxGeometry>
                </mxCell>
                <mxCell id="468" value="賭け金の回収" style="rounded=0;whiteSpace=wrap;html=1;" vertex="1" parent="314">
                    <mxGeometry x="559.6946280991735" y="840" width="131.90082644628097" height="33.75" as="geometry"/>
                </mxCell>
                <mxCell id="470" style="edgeStyle=none;html=1;exitX=0.5;exitY=1;exitDx=0;exitDy=0;entryX=0.5;entryY=0;entryDx=0;entryDy=0;" edge="1" parent="314" source="459" target="468">
                    <mxGeometry relative="1" as="geometry"/>
                </mxCell>
                <mxCell id="471" style="edgeStyle=none;html=1;exitX=0.5;exitY=1;exitDx=0;exitDy=0;entryX=1;entryY=0.5;entryDx=0;entryDy=0;" edge="1" parent="314" source="468" target="548">
                    <mxGeometry relative="1" as="geometry"/>
                </mxCell>
                <mxCell id="626" value="GUIウィンドウに「RETRY]と「OK」を出力" style="rounded=0;whiteSpace=wrap;html=1;" vertex="1" parent="314">
                    <mxGeometry x="484.6700000000001" y="969.9999999999999" width="120" height="60" as="geometry"/>
                </mxCell>
                <mxCell id="833" value="ユーザとNPCが同じ数" style="text;html=1;strokeColor=none;fillColor=none;align=center;verticalAlign=middle;whiteSpace=wrap;rounded=0;" vertex="1" parent="314">
                    <mxGeometry x="475.00099526066356" y="660.004347826087" width="81.94312796208531" height="46.95652173913044" as="geometry"/>
                </mxCell>
                <mxCell id="339" value="" style="group" vertex="1" connectable="0" parent="1">
                    <mxGeometry x="190" y="1950" width="1230" height="650" as="geometry"/>
                </mxCell>
                <mxCell id="340" value="登録済み" style="rounded=0;whiteSpace=wrap;html=1;" vertex="1" parent="339">
                    <mxGeometry y="30" width="200" height="40" as="geometry"/>
                </mxCell>
                <mxCell id="341" value="" style="rounded=0;whiteSpace=wrap;html=1;" vertex="1" parent="339">
                    <mxGeometry y="70" width="200" height="420" as="geometry"/>
                </mxCell>
                <mxCell id="342" value="" style="rounded=0;whiteSpace=wrap;html=1;" vertex="1" parent="339">
                    <mxGeometry x="200" y="70" width="320" height="420" as="geometry"/>
                </mxCell>
                <mxCell id="343" style="edgeStyle=none;html=1;exitX=0.5;exitY=1;exitDx=0;exitDy=0;entryX=0.5;entryY=0;entryDx=0;entryDy=0;" edge="1" parent="339" target="345">
                    <mxGeometry relative="1" as="geometry">
                        <mxPoint x="100" y="120" as="sourcePoint"/>
                    </mxGeometry>
                </mxCell>
                <mxCell id="344" style="edgeStyle=none;html=1;exitX=1;exitY=0.5;exitDx=0;exitDy=0;entryX=0;entryY=0.5;entryDx=0;entryDy=0;" edge="1" parent="339" source="345">
                    <mxGeometry relative="1" as="geometry">
                        <mxPoint x="230" y="155" as="targetPoint"/>
                    </mxGeometry>
                </mxCell>
                <mxCell id="345" value="サレンダーする" style="rounded=0;whiteSpace=wrap;html=1;" vertex="1" parent="339">
                    <mxGeometry x="60" y="140" width="80" height="30" as="geometry"/>
                </mxCell>
                <mxCell id="348" value="" style="group" vertex="1" connectable="0" parent="339">
                    <mxGeometry width="520" height="70" as="geometry"/>
                </mxCell>
                <mxCell id="349" value="POOL" style="rounded=0;whiteSpace=wrap;html=1;" vertex="1" parent="348">
                    <mxGeometry width="520" height="30" as="geometry"/>
                </mxCell>
                <mxCell id="350" value="システム" style="rounded=0;whiteSpace=wrap;html=1;" vertex="1" parent="348">
                    <mxGeometry x="200" y="30" width="320" height="40" as="geometry"/>
                </mxCell>
                <mxCell id="356" value="" style="ellipse;html=1;shape=endState;fillColor=strokeColor;" vertex="1" parent="339">
                    <mxGeometry x="320" y="440" width="30" height="30" as="geometry"/>
                </mxCell>
                <mxCell id="363" value="" style="ellipse;fillColor=strokeColor;" vertex="1" parent="339">
                    <mxGeometry x="85" y="90" width="30" height="30" as="geometry"/>
                </mxCell>
                <mxCell id="437" value="" style="ellipse;html=1;shape=endState;fillColor=strokeColor;" vertex="1" parent="339">
                    <mxGeometry x="1070" y="300" width="30" height="30" as="geometry"/>
                </mxCell>
                <mxCell id="537" style="edgeStyle=none;html=1;exitX=0.5;exitY=1;exitDx=0;exitDy=0;entryX=0.5;entryY=0;entryDx=0;entryDy=0;" edge="1" parent="339" source="536" target="569">
                    <mxGeometry relative="1" as="geometry"/>
                </mxCell>
                <mxCell id="536" value="敗北表示をし賭け金の半分を回収" style="rounded=0;whiteSpace=wrap;html=1;" vertex="1" parent="339">
                    <mxGeometry x="230" y="140" width="120" height="40" as="geometry"/>
                </mxCell>
                <mxCell id="569" value="勝負を継続するか選択する画面を出力" style="rounded=0;whiteSpace=wrap;html=1;" vertex="1" parent="339">
                    <mxGeometry x="230" y="200" width="120" height="60" as="geometry"/>
                </mxCell>
                <mxCell id="622" value="" style="rhombus;whiteSpace=wrap;html=1;" vertex="1" parent="339">
                    <mxGeometry x="1054.67" y="194.9999999999999" width="40" height="35" as="geometry"/>
                </mxCell>
                <mxCell id="623" style="edgeStyle=none;html=1;exitX=0.5;exitY=1;exitDx=0;exitDy=0;entryX=0;entryY=0;entryDx=0;entryDy=0;" edge="1" parent="339" source="624" target="437">
                    <mxGeometry relative="1" as="geometry">
                        <mxPoint x="1084.393398282223" y="289.3933982822232" as="targetPoint"/>
                    </mxGeometry>
                </mxCell>
                <mxCell id="624" value="賭け金とゲーム開始を選択する画面を出力する" style="rounded=0;whiteSpace=wrap;html=1;" vertex="1" parent="339">
                    <mxGeometry x="940" y="239.9999999999999" width="120" height="37" as="geometry"/>
                </mxCell>
                <mxCell id="620" style="edgeStyle=none;html=1;exitX=0;exitY=0.5;exitDx=0;exitDy=0;entryX=0.556;entryY=-0.038;entryDx=0;entryDy=0;entryPerimeter=0;" edge="1" parent="339" source="622" target="624">
                    <mxGeometry relative="1" as="geometry"/>
                </mxCell>
                <mxCell id="618" value="ボタンを選択する" style="rounded=0;whiteSpace=wrap;html=1;" vertex="1" parent="339">
                    <mxGeometry x="649.995041322314" y="102.5" width="131.90082644628097" height="67.5" as="geometry"/>
                </mxCell>
                <mxCell id="627" style="edgeStyle=none;html=1;exitX=1;exitY=0.75;exitDx=0;exitDy=0;entryX=0.5;entryY=0;entryDx=0;entryDy=0;" edge="1" parent="339" source="618" target="622">
                    <mxGeometry relative="1" as="geometry"/>
                </mxCell>
                <mxCell id="799" style="edgeStyle=none;html=1;exitX=1;exitY=0.5;exitDx=0;exitDy=0;entryX=0;entryY=0.5;entryDx=0;entryDy=0;" edge="1" parent="339" source="628" target="798">
                    <mxGeometry relative="1" as="geometry"/>
                </mxCell>
                <mxCell id="628" value="ボタンを選択する" style="rounded=0;whiteSpace=wrap;html=1;" vertex="1" parent="339">
                    <mxGeometry x="34.04504132231402" y="224.75" width="131.90082644628097" height="67.5" as="geometry"/>
                </mxCell>
                <mxCell id="808" style="edgeStyle=none;html=1;exitX=0.5;exitY=1;exitDx=0;exitDy=0;entryX=0.5;entryY=0;entryDx=0;entryDy=0;" edge="1" parent="339" source="798" target="804">
                    <mxGeometry relative="1" as="geometry"/>
                </mxCell>
                <mxCell id="809" style="edgeStyle=none;html=1;exitX=0.5;exitY=1;exitDx=0;exitDy=0;entryX=0.5;entryY=0;entryDx=0;entryDy=0;" edge="1" parent="339" source="798" target="805">
                    <mxGeometry relative="1" as="geometry"/>
                </mxCell>
                <mxCell id="798" value="" style="rhombus;whiteSpace=wrap;html=1;" vertex="1" parent="339">
                    <mxGeometry x="310" y="277" width="50" height="50" as="geometry"/>
                </mxCell>
                <mxCell id="810" style="edgeStyle=none;html=1;exitX=0.5;exitY=1;exitDx=0;exitDy=0;entryX=0;entryY=0.5;entryDx=0;entryDy=0;" edge="1" parent="339" source="804" target="356">
                    <mxGeometry relative="1" as="geometry"/>
                </mxCell>
                <mxCell id="804" value="賭け金とゲーム開始を選択する画面を出力する" style="rounded=0;whiteSpace=wrap;html=1;" vertex="1" parent="339">
                    <mxGeometry x="210" y="383" width="120" height="37" as="geometry"/>
                </mxCell>
                <mxCell id="811" style="edgeStyle=none;html=1;exitX=0.5;exitY=1;exitDx=0;exitDy=0;entryX=1;entryY=0.5;entryDx=0;entryDy=0;" edge="1" parent="339" source="805" target="356">
                    <mxGeometry relative="1" as="geometry"/>
                </mxCell>
                <mxCell id="805" value="GUIウィンドウに「RETRY]と「OK」のボタンを出力" style="rounded=0;whiteSpace=wrap;html=1;" vertex="1" parent="339">
                    <mxGeometry x="350" y="360" width="120" height="60" as="geometry"/>
                </mxCell>
                <mxCell id="806" value="ゲームを継続する" style="text;html=1;strokeColor=none;fillColor=none;align=center;verticalAlign=middle;whiteSpace=wrap;rounded=0;" vertex="1" parent="339">
                    <mxGeometry x="210" y="330" width="60" height="30" as="geometry"/>
                </mxCell>
                <mxCell id="812" value="ゲームを継続しない" style="text;html=1;strokeColor=none;fillColor=none;align=center;verticalAlign=middle;whiteSpace=wrap;rounded=0;" vertex="1" parent="339">
                    <mxGeometry x="380" y="310" width="60" height="30" as="geometry"/>
                </mxCell>
                <mxCell id="813" value="ゲームを継続する" style="text;html=1;strokeColor=none;fillColor=none;align=center;verticalAlign=middle;whiteSpace=wrap;rounded=0;" vertex="1" parent="339">
                    <mxGeometry x="960" y="195" width="60" height="30" as="geometry"/>
                </mxCell>
                <mxCell id="814" value="ゲームを継続しない" style="text;html=1;strokeColor=none;fillColor=none;align=center;verticalAlign=middle;whiteSpace=wrap;rounded=0;" vertex="1" parent="339">
                    <mxGeometry x="1120" y="190" width="60" height="30" as="geometry"/>
                </mxCell>
                <mxCell id="456" value="ユーザに賭け金の2倍を付与" style="rounded=0;whiteSpace=wrap;html=1;" vertex="1" parent="339">
                    <mxGeometry x="833.64" y="-20" width="120" height="60" as="geometry"/>
                </mxCell>
                <mxCell id="837" value="ゲームを継続する" style="text;html=1;strokeColor=none;fillColor=none;align=center;verticalAlign=middle;whiteSpace=wrap;rounded=0;" vertex="1" parent="339">
                    <mxGeometry x="810" y="410" width="100" height="30" as="geometry"/>
                </mxCell>
                <mxCell id="838" value="ゲームを継続しない" style="text;html=1;strokeColor=none;fillColor=none;align=center;verticalAlign=middle;whiteSpace=wrap;rounded=0;" vertex="1" parent="339">
                    <mxGeometry x="180" y="500" width="120" height="30" as="geometry"/>
                </mxCell>
                <mxCell id="193" style="edgeStyle=none;html=1;exitX=0.5;exitY=1;exitDx=0;exitDy=0;entryX=1;entryY=0.25;entryDx=0;entryDy=0;" edge="1" parent="1" source="191" target="194">
                    <mxGeometry relative="1" as="geometry"/>
                </mxCell>
                <mxCell id="192" style="edgeStyle=none;html=1;exitX=0.5;exitY=1;exitDx=0;exitDy=0;entryX=0.5;entryY=0;entryDx=0;entryDy=0;" edge="1" parent="1" source="187" target="191">
                    <mxGeometry relative="1" as="geometry"/>
                </mxCell>
                <mxCell id="539" style="edgeStyle=none;html=1;exitX=0.5;exitY=1;exitDx=0;exitDy=0;entryX=0.469;entryY=0.05;entryDx=0;entryDy=0;entryPerimeter=0;" edge="1" parent="1" source="538" target="187">
                    <mxGeometry relative="1" as="geometry"/>
                </mxCell>
                <mxCell id="571" value="" style="group" vertex="1" connectable="0" parent="1">
                    <mxGeometry x="180" y="2490" width="1675" height="650" as="geometry"/>
                </mxCell>
                <mxCell id="572" value="登録済み" style="rounded=0;whiteSpace=wrap;html=1;" vertex="1" parent="571">
                    <mxGeometry y="30" width="200" height="40" as="geometry"/>
                </mxCell>
                <mxCell id="573" value="" style="rounded=0;whiteSpace=wrap;html=1;" vertex="1" parent="571">
                    <mxGeometry y="70" width="200" height="490" as="geometry"/>
                </mxCell>
                <mxCell id="574" value="" style="rounded=0;whiteSpace=wrap;html=1;" vertex="1" parent="571">
                    <mxGeometry x="200" y="70" width="320" height="490" as="geometry"/>
                </mxCell>
                <mxCell id="576" style="edgeStyle=none;html=1;exitX=1;exitY=0.5;exitDx=0;exitDy=0;entryX=0;entryY=0.5;entryDx=0;entryDy=0;" edge="1" parent="571" source="577" target="583">
                    <mxGeometry relative="1" as="geometry"/>
                </mxCell>
                <mxCell id="577" value="ゲームを継続しないを選択する" style="rounded=0;whiteSpace=wrap;html=1;" vertex="1" parent="571">
                    <mxGeometry x="50" y="140" width="90" height="30" as="geometry"/>
                </mxCell>
                <mxCell id="578" value="" style="group" vertex="1" connectable="0" parent="571">
                    <mxGeometry width="520" height="70" as="geometry"/>
                </mxCell>
                <mxCell id="579" value="POOL" style="rounded=0;whiteSpace=wrap;html=1;" vertex="1" parent="578">
                    <mxGeometry width="520" height="30" as="geometry"/>
                </mxCell>
                <mxCell id="580" value="システム" style="rounded=0;whiteSpace=wrap;html=1;" vertex="1" parent="578">
                    <mxGeometry x="200" y="30" width="320" height="40" as="geometry"/>
                </mxCell>
                <mxCell id="582" style="edgeStyle=none;html=1;exitX=0.5;exitY=1;exitDx=0;exitDy=0;entryX=0.75;entryY=0.357;entryDx=0;entryDy=0;entryPerimeter=0;" edge="1" parent="571" source="583" target="573">
                    <mxGeometry relative="1" as="geometry"/>
                </mxCell>
                <mxCell id="583" value="GUIウィンドウに「RETRY]と「OK」のボタンを出力" style="rounded=0;whiteSpace=wrap;html=1;" vertex="1" parent="571">
                    <mxGeometry x="230" y="140" width="170" height="30" as="geometry"/>
                </mxCell>
                <mxCell id="835" style="edgeStyle=none;html=1;exitX=0.5;exitY=1;exitDx=0;exitDy=0;" edge="1" parent="571" source="584" target="577">
                    <mxGeometry relative="1" as="geometry"/>
                </mxCell>
                <mxCell id="584" value="" style="ellipse;fillColor=strokeColor;" vertex="1" parent="571">
                    <mxGeometry x="80" y="90" width="30" height="30" as="geometry"/>
                </mxCell>
                <mxCell id="587" style="edgeStyle=none;html=1;exitX=1;exitY=0.5;exitDx=0;exitDy=0;" edge="1" parent="571" source="585" target="586">
                    <mxGeometry relative="1" as="geometry"/>
                </mxCell>
                <mxCell id="585" value="ボタンを選択" style="rounded=0;whiteSpace=wrap;html=1;" vertex="1" parent="571">
                    <mxGeometry x="35" y="220" width="120" height="40" as="geometry"/>
                </mxCell>
                <mxCell id="823" style="edgeStyle=none;html=1;exitX=0.5;exitY=1;exitDx=0;exitDy=0;entryX=0.5;entryY=0;entryDx=0;entryDy=0;" edge="1" parent="571" source="586" target="818">
                    <mxGeometry relative="1" as="geometry"/>
                </mxCell>
                <mxCell id="586" value="内容確認" style="rounded=0;whiteSpace=wrap;html=1;" vertex="1" parent="571">
                    <mxGeometry x="280" y="220" width="120" height="40" as="geometry"/>
                </mxCell>
                <mxCell id="815" value="" style="ellipse;html=1;shape=endState;fillColor=strokeColor;" vertex="1" parent="571">
                    <mxGeometry x="320" y="443" width="30" height="30" as="geometry"/>
                </mxCell>
                <mxCell id="818" value="" style="rhombus;whiteSpace=wrap;html=1;" vertex="1" parent="571">
                    <mxGeometry x="315" y="280" width="50" height="50" as="geometry"/>
                </mxCell>
                <mxCell id="819" style="edgeStyle=none;html=1;exitX=0.5;exitY=1;exitDx=0;exitDy=0;entryX=0;entryY=0.5;entryDx=0;entryDy=0;" edge="1" parent="571" source="820" target="815">
                    <mxGeometry relative="1" as="geometry"/>
                </mxCell>
                <mxCell id="820" value="ユーザ登録画面ウィンドウに戻る" style="rounded=0;whiteSpace=wrap;html=1;" vertex="1" parent="571">
                    <mxGeometry x="210" y="386" width="120" height="37" as="geometry"/>
                </mxCell>
                <mxCell id="816" style="edgeStyle=none;html=1;exitX=0.5;exitY=1;exitDx=0;exitDy=0;entryX=0.5;entryY=0;entryDx=0;entryDy=0;" edge="1" parent="571" source="818" target="820">
                    <mxGeometry relative="1" as="geometry"/>
                </mxCell>
                <mxCell id="821" style="edgeStyle=none;html=1;exitX=0.5;exitY=1;exitDx=0;exitDy=0;entryX=1;entryY=0.5;entryDx=0;entryDy=0;" edge="1" parent="571" source="822" target="815">
                    <mxGeometry relative="1" as="geometry"/>
                </mxCell>
                <mxCell id="822" value="ゲーム画面を閉じる" style="rounded=0;whiteSpace=wrap;html=1;" vertex="1" parent="571">
                    <mxGeometry x="345" y="374.5" width="120" height="60" as="geometry"/>
                </mxCell>
                <mxCell id="817" style="edgeStyle=none;html=1;exitX=0.5;exitY=1;exitDx=0;exitDy=0;entryX=0.5;entryY=0;entryDx=0;entryDy=0;" edge="1" parent="571" source="818" target="822">
                    <mxGeometry relative="1" as="geometry"/>
                </mxCell>
                <mxCell id="824" value="RETRY" style="text;html=1;strokeColor=none;fillColor=none;align=center;verticalAlign=middle;whiteSpace=wrap;rounded=0;" vertex="1" parent="571">
                    <mxGeometry x="230" y="340" width="60" height="30" as="geometry"/>
                </mxCell>
                <mxCell id="825" value="OK" style="text;html=1;strokeColor=none;fillColor=none;align=center;verticalAlign=middle;whiteSpace=wrap;rounded=0;" vertex="1" parent="571">
                    <mxGeometry x="360" y="320" width="60" height="30" as="geometry"/>
                </mxCell>
                <mxCell id="364" value="" style="group" vertex="1" connectable="0" parent="571">
                    <mxGeometry x="620" y="-85" width="1055" height="650" as="geometry"/>
                </mxCell>
                <mxCell id="365" value="登録済み" style="rounded=0;whiteSpace=wrap;html=1;" vertex="1" parent="364">
                    <mxGeometry y="30" width="200" height="40" as="geometry"/>
                </mxCell>
                <mxCell id="366" value="" style="rounded=0;whiteSpace=wrap;html=1;" vertex="1" parent="364">
                    <mxGeometry y="70" width="200" height="420" as="geometry"/>
                </mxCell>
                <mxCell id="367" value="" style="rounded=0;whiteSpace=wrap;html=1;" vertex="1" parent="364">
                    <mxGeometry x="200" y="70" width="320" height="420" as="geometry"/>
                </mxCell>
                <mxCell id="368" style="edgeStyle=none;html=1;exitX=0.5;exitY=1;exitDx=0;exitDy=0;entryX=0.5;entryY=0;entryDx=0;entryDy=0;" edge="1" parent="364" target="370">
                    <mxGeometry relative="1" as="geometry">
                        <mxPoint x="100" y="120" as="sourcePoint"/>
                    </mxGeometry>
                </mxCell>
                <mxCell id="369" style="edgeStyle=none;html=1;exitX=1;exitY=0.5;exitDx=0;exitDy=0;entryX=0;entryY=0.5;entryDx=0;entryDy=0;" edge="1" parent="364" source="370" target="383">
                    <mxGeometry relative="1" as="geometry"/>
                </mxCell>
                <mxCell id="370" value="ゲームの継続を選択する" style="rounded=0;whiteSpace=wrap;html=1;" vertex="1" parent="364">
                    <mxGeometry x="60" y="140" width="80" height="30" as="geometry"/>
                </mxCell>
                <mxCell id="373" value="" style="group" vertex="1" connectable="0" parent="364">
                    <mxGeometry width="520" height="70" as="geometry"/>
                </mxCell>
                <mxCell id="374" value="POOL" style="rounded=0;whiteSpace=wrap;html=1;" vertex="1" parent="373">
                    <mxGeometry width="520" height="30" as="geometry"/>
                </mxCell>
                <mxCell id="375" value="システム" style="rounded=0;whiteSpace=wrap;html=1;" vertex="1" parent="373">
                    <mxGeometry x="200" y="30" width="320" height="40" as="geometry"/>
                </mxCell>
                <mxCell id="381" value="" style="ellipse;html=1;shape=endState;fillColor=strokeColor;" vertex="1" parent="364">
                    <mxGeometry x="290" y="270" width="30" height="30" as="geometry"/>
                </mxCell>
                <mxCell id="545" style="edgeStyle=none;html=1;exitX=0.5;exitY=1;exitDx=0;exitDy=0;entryX=0.491;entryY=-0.173;entryDx=0;entryDy=0;entryPerimeter=0;" edge="1" parent="364" source="383" target="381">
                    <mxGeometry relative="1" as="geometry"/>
                </mxCell>
                <mxCell id="383" value="賭け金とゲーム開始を選択する画面を出力する" style="rounded=0;whiteSpace=wrap;html=1;" vertex="1" parent="364">
                    <mxGeometry x="230" y="140" width="150" height="30" as="geometry"/>
                </mxCell>
                <mxCell id="388" value="" style="ellipse;fillColor=strokeColor;" vertex="1" parent="364">
                    <mxGeometry x="85" y="90" width="30" height="30" as="geometry"/>
                </mxCell>
                <mxCell id="625" style="edgeStyle=none;html=1;exitX=0.5;exitY=1;exitDx=0;exitDy=0;" edge="1" parent="1" source="626">
                    <mxGeometry relative="1" as="geometry">
                        <mxPoint x="1290" y="2260" as="targetPoint"/>
                    </mxGeometry>
                </mxCell>
                <mxCell id="621" style="edgeStyle=none;html=1;exitX=1;exitY=0.5;exitDx=0;exitDy=0;entryX=0.5;entryY=0;entryDx=0;entryDy=0;" edge="1" parent="1" source="622" target="626">
                    <mxGeometry relative="1" as="geometry"/>
                </mxCell>
                <mxCell id="549" style="edgeStyle=none;html=1;exitX=0;exitY=0.75;exitDx=0;exitDy=0;" edge="1" parent="1" source="548" target="618">
                    <mxGeometry relative="1" as="geometry"/>
                </mxCell>
                <mxCell id="800" style="edgeStyle=none;html=1;exitX=0;exitY=0.5;exitDx=0;exitDy=0;" edge="1" parent="1" source="569">
                    <mxGeometry relative="1" as="geometry">
                        <mxPoint x="360" y="2210" as="targetPoint"/>
                    </mxGeometry>
                </mxCell>
                <mxCell id="826" value="ユーザ情報の登録をする" style="text;html=1;strokeColor=none;fillColor=none;align=center;verticalAlign=middle;whiteSpace=wrap;rounded=0;" vertex="1" parent="1">
                    <mxGeometry x="950" y="50" width="180" height="30" as="geometry"/>
                </mxCell>
                <mxCell id="827" value="ログインする" style="text;html=1;strokeColor=none;fillColor=none;align=center;verticalAlign=middle;whiteSpace=wrap;rounded=0;" vertex="1" parent="1">
                    <mxGeometry x="388" y="60" width="75" height="30" as="geometry"/>
                </mxCell>
                <mxCell id="474" style="edgeStyle=none;html=1;exitX=0.5;exitY=1;exitDx=0;exitDy=0;entryX=0;entryY=0.5;entryDx=0;entryDy=0;" edge="1" parent="1" source="456" target="548">
                    <mxGeometry relative="1" as="geometry"/>
                </mxCell>
                <mxCell id="473" style="edgeStyle=none;html=1;exitX=0.5;exitY=1;exitDx=0;exitDy=0;entryX=0.5;entryY=0;entryDx=0;entryDy=0;" edge="1" parent="1" source="458" target="456">
                    <mxGeometry relative="1" as="geometry"/>
                </mxCell>
                <mxCell id="836" value="サレンダー" style="text;html=1;strokeColor=none;fillColor=none;align=center;verticalAlign=middle;whiteSpace=wrap;rounded=0;" vertex="1" parent="1">
                    <mxGeometry x="400" y="1910" width="100" height="30" as="geometry"/>
                </mxCell>
            </root>
        </mxGraphModel>
    </diagram>
</mxfile>